<?xml version="1.0" encoding="UTF-8"?>
<svg version="1.1" xmlns="http://www.w3.org/2000/svg" width="500" height="500">
<path d="M0 0 C165 0 330 0 500 0 C500 165 500 330 500 500 C335 500 170 500 0 500 C0 335 0 170 0 0 Z " fill="#000000" transform="translate(0,0)"/>
<path d="M0 0 C4.08502771 4.03003695 5.02000162 7.94846997 6.0625 13.375 C6.2267749 14.16503418 6.3910498 14.95506836 6.56030273 15.76904297 C7.34736495 19.5838268 8.08002079 23.4088029 8.8125 27.234375 C10.26075914 35.065054 10.26075914 35.065054 12.6875 42.625 C13.91369426 45.77807095 14.56871115 47.6825183 14 51 C12.98828125 52.59375 12.98828125 52.59375 11 54 C8.20748417 54.37674518 5.61220799 54.60191941 2.8125 54.6875 C2.06291016 54.72166016 1.31332031 54.75582031 0.54101562 54.79101562 C-1.30546838 54.87334294 -3.15270994 54.93835281 -5 55 C-5.2333606 56.67280029 -5.2333606 56.67280029 -5.47143555 58.37939453 C-8.67710742 81.30890469 -12.01288362 104.19170318 -16 127 C-16.11113129 127.64022095 -16.22226257 128.28044189 -16.33676147 128.94006348 C-18.12830158 139.25831965 -20.01059648 149.55685168 -21.99731445 159.83935547 C-22.29137276 161.36624056 -22.58303037 162.89358991 -22.87231445 164.42138672 C-24.82868197 174.75197492 -27.12035505 184.88430422 -30 195 C-30.21648193 195.76441406 -30.43296387 196.52882813 -30.65600586 197.31640625 C-35.51258136 213.89074334 -42.8688918 231.4756085 -58.01953125 240.94140625 C-63.65618244 243.95429081 -69.78872918 243.72405671 -76 243 C-85.78854996 239.37255999 -92.80581371 230.824182 -99.125 222.875 C-103.08769794 217.96181366 -107.2976333 213.34794629 -111.6875 208.8125 C-112.31736816 208.14009277 -112.94723633 207.46768555 -113.59619141 206.77490234 C-116.44639651 203.88263888 -118.15831001 202.19129318 -122.1796875 201.27734375 C-128.40826872 202.87330985 -131.81440559 209.76999362 -135 215 C-138.34217587 220.99048988 -141.54671579 227.05340425 -144.64624023 233.17285156 C-150.55411873 244.73140129 -150.55411873 244.73140129 -156 249 C-159.12172032 249.83437686 -160.66094486 249.58300963 -164 249 C-172.62377858 243.25081428 -176.39473687 229.85598433 -178.56201172 220.24365234 C-184.05841259 192.08761889 -184.05841259 192.08761889 -180 186 C-177.5625 185.625 -177.5625 185.625 -175 186 C-171.18022389 189.05547374 -171.18941739 192.84192507 -170.625 197.4375 C-169.62126742 204.61196974 -168.2786151 211.60152923 -166.5 218.625 C-166.29842285 219.4286499 -166.0968457 220.2322998 -165.88916016 221.06030273 C-164.49500906 226.45829899 -162.82616326 231.7333075 -161 237 C-160.34 237 -159.68 237 -159 237 C-158.72687988 236.11787842 -158.45375977 235.23575684 -158.17236328 234.3269043 C-157.0869326 231.24669523 -155.83535502 228.61189297 -154.2421875 225.76953125 C-153.70303711 224.80660156 -153.16388672 223.84367188 -152.60839844 222.8515625 C-135.20562698 192.34033727 -135.20562698 192.34033727 -124.78125 189.3671875 C-118.13907573 188.82926494 -113.12931841 192.11137712 -108 196 C-102.45418072 200.74912509 -97.9971537 206.38491054 -93.4296875 212.05078125 C-90.79474897 215.24913911 -88.08900614 218.36207297 -85.3125 221.4375 C-84.00732422 222.88962891 -84.00732422 222.88962891 -82.67578125 224.37109375 C-79.38870876 227.60058249 -76.23945577 230.49239003 -71.65625 231.53125 C-64.59741899 231.4289481 -61.23959004 229.14221656 -56.125 224.25 C-31.14837084 193.01291026 -29.35527889 135.52967946 -23.39013672 97.29931641 C-22.87091649 93.97384619 -22.34775081 90.64901259 -21.82421875 87.32421875 C-20.08399235 76.2317426 -18.39721529 65.14148982 -17 54 C-18.2223938 53.91371338 -18.2223938 53.91371338 -19.46948242 53.82568359 C-20.40767822 53.75945801 -21.34587402 53.69323242 -22.3125 53.625 C-23.29863281 53.55539063 -24.28476562 53.48578125 -25.30078125 53.4140625 C-28 53 -28 53 -31 51 C-31.5625 48.1875 -31.5625 48.1875 -31 45 C-30.10023438 44.34515625 -29.20046875 43.6903125 -28.2734375 43.015625 C-23.60730974 39.32624108 -22.12329598 33.96891692 -20.0625 28.5625 C-19.20147797 26.40352423 -18.33690153 24.24596254 -17.46875 22.08984375 C-16.84226562 20.52532471 -16.84226562 20.52532471 -16.203125 18.92919922 C-14.62593497 15.08927917 -12.91190849 11.34055141 -11.0625 7.625 C-10.53785156 6.56539062 -10.01320313 5.50578125 -9.47265625 4.4140625 C-7.04655978 0.43706617 -4.51757432 -0.77129318 0 0 Z " fill="#F8F8F8" transform="translate(334,125)"/>
<path d="M0 0 C2.28165132 3.42247699 2.88604596 6.54131766 3.625 10.5 C3.7590625 11.17675781 3.893125 11.85351562 4.03125 12.55078125 C4.58536827 15.41749517 5 18.07331285 5 21 C0.71 21 -3.58 21 -8 21 C-7.09262391 16.46311953 -5.73558574 12.49891037 -4 8.25 C-3.59007812 7.22326172 -3.59007812 7.22326172 -3.171875 6.17578125 C-1.13600498 1.13600498 -1.13600498 1.13600498 0 0 Z " fill="#070707" transform="translate(329,147)"/>
</svg>
